# Blender v2.79 (sub 0) OBJ File: 'Rock.blend'
# www.blender.org
mtllib Rock.mtl
o Rock_1_low_Plane
v 0.445655 1.773016 0.632070
v 0.686859 1.660647 0.702435
v 0.404018 1.917207 0.168097
v 0.820931 1.675008 0.315808
v 0.462746 1.874124 -0.228663
v 0.714871 1.692556 -0.090576
v 0.306506 1.805067 -0.744110
v 0.892086 1.398186 -0.469100
v 0.685932 1.332140 -1.008471
v 0.130221 1.774414 0.815547
v 0.024108 1.768628 1.090047
v -0.387797 1.765470 0.469708
v -0.646050 1.662180 0.451619
v -0.400867 1.838797 0.091436
v -0.706005 1.654352 0.098374
v -0.316516 1.652987 -0.953063
v -0.549331 1.480005 -0.521420
v 0.154095 1.683946 -1.119586
v 0.287652 1.252717 -1.222110
v -0.214711 1.743298 -0.293292
v 0.484759 1.076573 0.708637
v 0.714170 1.022621 0.455111
v 0.887733 0.984226 0.094717
v 0.929962 0.774566 -0.228400
v 0.746579 0.827233 -0.987077
v -0.082345 1.358159 1.140009
v -0.722454 1.244378 0.463210
v -0.845220 1.066096 -0.239779
v -0.253095 1.306532 -1.032582
v -0.505948 1.005364 -0.800670
v 0.294462 0.884658 -1.216270
v -1.150102 0.987187 0.800242
v 0.769015 0.884974 0.663539
v 0.833241 0.871903 0.213563
v 0.811387 0.662604 -0.173702
v 0.705256 0.729941 -1.003309
v -0.243199 0.858347 1.149414
v 1.032295 0.619922 0.206943
v -0.506244 0.910197 -0.762838
v 0.668931 0.627125 -1.234429
v 0.882473 0.633912 0.888818
v -0.626473 0.767944 -0.810200
v -0.201142 0.759723 -0.984742
v -0.622881 0.834358 -0.376708
v -0.534884 0.667462 -0.693580
v 0.962762 0.537571 -0.248717
v -0.218585 0.669552 -1.100729
v -0.994370 0.760255 -0.020654
v -0.546218 0.588969 -0.746060
v -1.156527 0.189508 0.841798
v -0.278634 0.245030 1.327140
v 1.092923 0.351029 0.335782
v 0.600950 0.401614 -1.299219
v 0.727768 0.293135 1.122066
v 0.895917 0.323286 -0.264280
v -0.246045 0.071680 -1.080388
v -1.141623 0.139856 0.145622
v -0.672151 0.135714 -0.787157
v -0.004403 0.047714 0.101301
v -0.100753 0.024348 -0.468316
v 0.667519 0.118153 -0.214147
v 0.497962 0.034398 0.916133
v -0.466918 0.062633 -0.318170
v -0.801482 0.040515 0.485739
v 0.723066 0.052896 0.249828
v -0.755619 0.024228 0.157579
v -0.166515 0.061517 0.958956
v 0.417006 0.006464 -0.836098
vt 0.664429 0.594568
vt 0.597139 0.579483
vt 0.646736 0.527619
vt 0.576310 0.519072
vt 0.611138 0.479308
vt 0.507303 0.481053
vt 0.587161 0.407805
vt 0.503472 0.400473
vt 0.636622 0.619245
vt 0.714115 0.605969
vt 0.736133 0.636895
vt 0.776186 0.540485
vt 0.823738 0.532974
vt 0.764984 0.477596
vt 0.828259 0.470106
vt 0.722405 0.394301
vt 0.608690 0.328396
vt 0.691568 0.269234
vt 0.564372 0.362117
vt 0.518844 0.347005
vt 0.822528 0.334664
vt 0.570357 0.291221
vt 0.572117 0.196546
vt 0.453757 0.614742
vt 0.921724 0.403419
vt 0.909997 0.546894
vt 0.781820 0.706663
vt 0.478326 0.324435
vt 0.602009 0.744008
vt 0.425306 0.387781
vt 0.520498 0.696833
vt 0.387485 0.542789
vt 0.906381 0.818227
vt 0.408511 0.373821
vt 0.429449 0.218866
vt 0.375471 0.260334
vt 0.387800 0.195427
vt 0.941707 0.265475
vt 0.983964 0.369496
vt 0.476190 0.175266
vt 0.506502 0.193019
vt 0.494458 0.235434
vt 0.231331 0.684267
vt 0.201793 0.775706
vt 0.168409 0.598741
vt 0.548372 0.120338
vt 0.567085 0.147965
vt 0.556785 0.182846
vt 0.687951 0.134679
vt 0.773640 0.140436
vt 0.697850 0.167986
vt 0.622614 0.195282
vt 0.702919 0.199778
vt 0.700861 0.077283
vt 0.547523 0.079366
vt 0.728113 0.048463
vt 0.342847 0.151719
vt 0.841211 0.135507
vt 0.924863 0.157540
vt 0.918314 0.174479
vt 0.849726 0.109658
vt 0.463022 0.112315
vt 0.273975 0.488145
vt 0.222493 0.318631
vt 0.173078 0.459284
vt 0.119612 0.248141
vt 0.271291 0.117614
vt 0.027468 0.436247
vt 0.424546 0.065496
vt 0.544983 0.032812
vt 0.744356 0.007131
vt 0.913159 0.027119
vt 0.987902 0.092962
vt 0.102534 0.804457
vt 0.034561 0.586789
vt 0.233369 0.748143
vt 0.332095 0.744854
vt 0.297650 0.791935
vt 0.306793 0.994462
vt 0.436627 0.922596
vt 0.457878 0.982133
vt 0.481687 0.682491
vt 0.487115 0.771575
vt 0.447869 0.715953
vt 0.268137 0.676148
vt 0.367936 0.666081
vt 0.249729 0.904685
vt 0.301498 0.873812
vt 0.364009 0.575604
vt 0.322067 0.917403
vt 0.554590 0.747913
vt 0.507291 0.864783
vt 0.563545 0.876466
vt 0.387906 0.807353
vt 0.964618 0.273774
vt 0.216384 0.761582
vn 0.2164 0.9307 0.2950
vn 0.8643 0.4889 0.1179
vn 0.1814 0.9816 0.0590
vn 0.7789 0.6179 -0.1075
vn 0.2980 0.9415 -0.1574
vn 0.9129 0.3755 -0.1598
vn 0.2399 0.9306 -0.2764
vn 0.6980 0.3393 -0.6305
vn 0.7024 0.4088 0.5826
vn 0.0819 0.9948 0.0609
vn 0.0089 0.6319 0.7750
vn -0.2553 0.9463 0.1981
vn -0.7504 0.5527 0.3625
vn -0.3177 0.9412 -0.1151
vn -0.8025 0.5905 -0.0857
vn -0.3025 0.9305 -0.2062
vn -0.6088 0.5776 -0.5437
vn -0.7758 0.5120 -0.3687
vn 0.0374 0.6563 -0.7536
vn 0.0930 0.1090 -0.9897
vn -0.5701 0.0057 -0.8215
vn -0.7670 -0.0535 -0.6393
vn 0.9739 -0.0558 0.2200
vn -0.9617 -0.2542 -0.1020
vn -0.7920 0.5081 0.3383
vn -0.1717 -0.3474 0.9218
vn 0.0185 -0.3859 -0.9224
vn 0.4964 0.2329 0.8362
vn 0.7987 -0.1058 -0.5923
vn 0.8841 0.2445 0.3982
vn 0.9168 -0.3959 0.0510
vn 0.7882 0.1746 -0.5901
vn 0.6951 0.6483 0.3108
vn -0.9021 0.1046 -0.4186
vn 0.9510 0.2798 0.1316
vn -0.4481 0.3786 -0.8098
vn -0.7121 0.3356 -0.6166
vn -0.8248 0.4181 -0.3806
vn 0.9742 0.2178 -0.0584
vn -0.8060 0.1898 -0.5606
vn -0.8220 -0.1127 -0.5582
vn -0.8761 -0.0881 -0.4740
vn 0.9283 0.2820 -0.2421
vn 0.5544 0.4289 -0.7131
vn 0.7232 0.3499 0.5954
vn -0.4363 0.4274 -0.7917
vn 0.8975 0.4343 -0.0764
vn -0.0399 0.5455 0.8371
vn -0.7604 0.5060 0.4072
vn -0.1373 -0.3334 0.9327
vn 0.5427 -0.2121 0.8126
vn -0.7562 -0.4617 0.4636
vn 0.9467 -0.3140 0.0708
vn 0.8164 -0.5239 -0.2429
vn 0.4365 -0.2782 -0.8556
vn -0.3477 -0.6361 -0.6888
vn -0.6573 -0.4916 -0.5712
vn -0.8477 -0.4988 -0.1805
vn -0.0764 -0.9970 -0.0037
vn -0.1111 -0.9915 -0.0675
vn -0.0578 -0.9651 0.2554
vn 0.3782 -0.9248 -0.0400
vn 0.4231 -0.9017 -0.0887
vn 0.3268 -0.9104 -0.2538
vn -0.1448 -0.9868 -0.0726
vn -0.1604 -0.9823 0.0967
vn 0.2572 -0.9109 0.3225
vn 0.0176 -0.9998 0.0037
usemtl Material
s 1
f 1/1/1 4/2/2 3/3/3
f 3/3/3 6/4/4 5/5/5
f 5/5/5 8/6/6 7/7/7
f 7/7/7 8/6/6 9/8/8
f 2/9/9 10/10/10 11/11/11
f 11/11/11 12/12/12 13/13/13
f 13/13/13 14/14/14 15/15/15
f 20/16/16 16/17/17 17/18/18
f 16/17/17 7/7/7 18/19/19
f 18/19/19 9/8/8 19/20/20
f 1/1/1 12/12/12 10/10/10
f 3/3/3 12/12/12 1/1/1
f 5/5/5 7/7/7 20/16/16
f 15/15/15 20/16/16 17/21/18
f 3/3/3 20/16/16 14/14/14
f 17/18/18 29/22/21 30/23/22
f 4/2/2 23/24/23 6/4/4
f 17/21/18 28/25/24 15/15/15
f 15/15/15 27/26/25 13/13/13
f 13/13/13 26/27/26 11/11/11
f 9/8/8 31/28/27 19/20/20
f 11/11/11 21/29/28 2/9/9
f 8/6/6 25/30/29 9/8/8
f 2/9/9 22/31/30 4/2/2
f 8/6/6 23/24/23 24/32/31
f 29/22/21 18/19/19 19/20/20
f 26/27/26 27/26/25 21/33/28
f 29/22/21 31/28/27 30/23/22
f 24/32/31 36/34/32 25/30/29
f 22/35/30 21/36/28 33/37/33
f 30/38/22 44/39/34 28/25/24
f 22/35/30 34/40/35 23/41/23
f 31/28/27 36/34/32 43/42/36
f 44/43/34 49/44/37 48/45/38
f 23/41/23 35/46/39 24/47/31
f 27/26/25 28/25/24 44/39/34
f 30/23/22 43/42/36 39/48/40
f 39/49/40 43/50/36 42/51/41
f 44/52/34 39/49/40 42/51/41
f 42/51/41 43/50/36 45/53/42
f 44/52/34 42/51/41 45/53/42
f 36/54/32 46/55/43 40/56/44
f 21/36/28 41/57/45 33/37/33
f 43/58/36 49/59/37 45/60/42
f 43/58/36 40/56/44 47/61/46
f 33/37/33 38/62/47 34/40/35
f 27/63/25 37/64/48 21/36/28
f 27/63/25 48/45/38 32/65/49
f 35/46/39 38/62/47 46/55/43
f 41/57/45 51/66/50 54/67/51
f 48/45/38 50/68/52 32/65/49
f 46/55/43 52/69/53 55/70/54
f 40/56/44 55/70/54 53/71/55
f 49/59/37 56/72/56 58/73/57
f 48/45/38 58/74/57 57/75/58
f 47/61/46 53/71/55 56/72/56
f 41/57/45 52/69/53 38/62/47
f 37/64/48 50/68/52 51/66/50
f 58/76/57 60/77/59 63/78/60
f 50/79/52 67/80/61 51/81/50
f 55/82/54 65/83/62 61/84/63
f 56/85/56 68/86/64 60/77/59
f 57/87/58 63/78/60 66/88/65
f 55/82/54 68/86/64 53/89/55
f 57/87/58 64/90/66 50/79/52
f 52/91/53 62/92/67 65/83/62
f 51/81/50 62/92/67 54/93/51
f 66/88/65 63/78/60 59/94/68
f 67/80/61 64/90/66 59/94/68
f 62/92/67 67/80/61 59/94/68
f 68/86/64 61/84/63 59/94/68
f 61/84/63 65/83/62 59/94/68
f 64/90/66 66/88/65 59/94/68
f 60/77/59 68/86/64 59/94/68
f 63/78/60 60/77/59 59/94/68
f 65/83/62 62/92/67 59/94/68
f 1/1/1 2/9/9 4/2/2
f 3/3/3 4/2/2 6/4/4
f 5/5/5 6/4/4 8/6/6
f 2/9/9 1/1/1 10/10/10
f 11/11/11 10/10/10 12/12/12
f 13/13/13 12/12/12 14/14/14
f 20/16/16 7/7/7 16/17/17
f 18/19/19 7/7/7 9/8/8
f 3/3/3 14/14/14 12/12/12
f 15/15/15 14/14/14 20/16/16
f 3/3/3 5/5/5 20/16/16
f 17/18/18 16/17/17 29/22/21
f 4/2/2 22/31/30 23/24/23
f 17/21/18 30/38/22 28/25/24
f 15/15/15 28/25/24 27/26/25
f 13/13/13 27/26/25 26/27/26
f 9/8/8 25/30/29 31/28/27
f 11/11/11 26/27/26 21/29/28
f 8/6/6 24/32/31 25/30/29
f 2/9/9 21/29/28 22/31/30
f 8/6/6 6/4/4 23/24/23
f 29/22/21 16/17/17 18/19/19
f 29/22/21 19/20/20 31/28/27
f 24/47/31 35/46/39 36/54/32
f 30/38/22 39/95/40 44/39/34
f 22/35/30 33/37/33 34/40/35
f 31/28/27 25/30/29 36/34/32
f 44/43/34 45/96/42 49/44/37
f 23/41/23 34/40/35 35/46/39
f 30/23/22 31/28/27 43/42/36
f 36/54/32 35/46/39 46/55/43
f 21/36/28 37/64/48 41/57/45
f 43/58/36 47/61/46 49/59/37
f 43/58/36 36/54/32 40/56/44
f 33/37/33 41/57/45 38/62/47
f 27/63/25 32/65/49 37/64/48
f 27/63/25 44/43/34 48/45/38
f 35/46/39 34/40/35 38/62/47
f 41/57/45 37/64/48 51/66/50
f 48/45/38 57/75/58 50/68/52
f 46/55/43 38/62/47 52/69/53
f 40/56/44 46/55/43 55/70/54
f 49/59/37 47/61/46 56/72/56
f 48/45/38 49/44/37 58/74/57
f 47/61/46 40/56/44 53/71/55
f 41/57/45 54/67/51 52/69/53
f 37/64/48 32/65/49 50/68/52
f 58/76/57 56/85/56 60/77/59
f 50/79/52 64/90/66 67/80/61
f 55/82/54 52/91/53 65/83/62
f 56/85/56 53/89/55 68/86/64
f 57/87/58 58/76/57 63/78/60
f 55/82/54 61/84/63 68/86/64
f 57/87/58 66/88/65 64/90/66
f 52/91/53 54/93/51 62/92/67
f 51/81/50 67/80/61 62/92/67
